<?xml version="1.0" encoding="utf-8"?>
<!DOCTYPE svg PUBLIC "-//W3C//DTD SVG 1.0//EN" "http://www.w3.org/TR/2001/REC-SVG-20010904/DTD/svg10.dtd">
<svg version="1.0" xmlns="http://www.w3.org/2000/svg" width="452px" height="452px" viewBox="0 0 452 452" preserveAspectRatio="xMidYMid meet">
 <g fill="#ffffff">
  <path d="M204 446.4 c-1.4 -0.2 -5.9 -0.9 -10 -1.5 -26.6 -3.8 -60.4 -16.9 -84 -32.6 -46.5 -30.9 -80.3 -78.5 -93.4 -132 -4.8 -19.7 -6 -30.2 -6 -52.3 0 -22.2 1.5 -34.7 6.9 -55.5 6.8 -26.2 13.8 -41.9 29.1 -65 10.7 -16.2 14.1 -20.3 27.8 -34 12.2 -12.2 16 -15.5 25.1 -22.1 31.9 -23.2 67.9 -36.8 109 -41.4 26.9 -3 60.9 1.7 90 12.4 23.1 8.5 48.5 23 66 37.8 37 31.1 61.1 69.2 73 115.3 4.8 18.7 6.5 32.6 6.5 53.5 0 21.2 -1.8 36.1 -6.4 54.3 -7.7 29.8 -18.3 51.5 -37.7 77.3 -8.6 11.4 -27.4 30.8 -37.5 38.7 -33.2 26 -76.7 43.6 -116.8 47.2 l-7.8 0.8 0.4 -15.9 c0.4 -14.8 0.6 -16.4 3.4 -23.5 4.3 -10.6 9.4 -18.1 19.4 -28 17.4 -17.2 30.3 -24 90.1 -47.8 22.6 -9 31.7 -13.1 34.6 -15.6 7.7 -6.5 7.3 -2.8 7.3 -73.2 0 -59.2 -0.1 -63 -1.9 -66.3 -4 -7.7 -16.1 -7.7 -20.6 0 -1.9 3.4 -2 4.9 -2.1 61.3 0 39.9 -0.3 58 -1.1 58.8 -1.1 1.1 -3.8 2.2 -45.3 18.7 -21.5 8.5 -43.9 19 -53.2 24.8 -14.7 9.3 -30.1 23.7 -38.3 36.2 -2.6 3.9 -5.1 7.2 -5.4 7.2 -0.4 0 -1.5 -1.4 -2.5 -3.1 -4.6 -7.9 -14.6 -19.6 -22 -26 -19 -16.5 -29.3 -21.7 -95.1 -48.2 l-23 -9.2 -0.5 -59.5 c-0.6 -65.5 -0.2 -62.5 -6.9 -65.6 -4.9 -2.3 -10.6 -1.3 -14.5 2.5 l-3.1 3.1 0 63.3 c0 34.7 0.3 64.4 0.8 65.9 1 3.9 6.3 9.6 11 11.9 2.1 1.1 14.6 6.3 27.6 11.6 63.5 25.6 74.5 31.3 91.4 47.2 8.3 7.9 14.4 16.2 19.1 26.2 4.2 8.9 5.6 16.6 5.6 31.7 l0 11.2 -3.2 -0.1 c-1.8 -0.1 -4.4 -0.3 -5.8 -0.5z m27.8 -101.8 c18.8 -17.6 25.7 -23.1 38.7 -30.1 4.4 -2.4 11.8 -6 16.4 -7.9 10.8 -4.5 15.5 -7.8 17.8 -12.4 1.7 -3.5 1.8 -8.4 1.9 -83.7 0 -44 -0.2 -84 -0.6 -88.8 -0.8 -10.9 -2.9 -13.7 -10.7 -14.4 -8.5 -0.7 -12.8 3.4 -14 13.6 l-0.8 6.3 -10.9 3.8 c-17.5 6.2 -28.8 12.7 -40.3 23.3 l-4.3 3.9 -6.2 -5.4 c-11.3 -9.8 -23.9 -17 -39.3 -22.3 -4.4 -1.6 -8.6 -3.3 -9.2 -3.8 -0.7 -0.5 -1.3 -2.9 -1.3 -5.4 0 -11 -8.9 -17.3 -18.4 -12.8 -6.5 3.1 -6.1 -2.4 -6.4 91 -0.2 60.8 0 86.5 0.8 90.3 1.5 6.8 4.4 10.1 12.1 13.6 32.4 14.7 40.7 20.2 60.1 39.8 3.7 3.8 7.2 6.8 7.8 6.8 0.6 0 3.7 -2.4 6.8 -5.4z m-110.3 -60.9 c3.1 -3.1 3.3 -3.8 4 -12.9 0.4 -5.3 0.5 -35 0.3 -66 -0.4 -63.2 -0.2 -61.4 -7.6 -64.5 -8.1 -3.4 -15.9 0.7 -17.2 9 -0.3 2.4 -0.6 32.3 -0.6 66.3 0.1 68 -0.1 65.3 6.2 69.4 1.7 1.2 4.6 2 7.3 2 3.5 0 4.9 -0.6 7.6 -3.3z m224.3 -0.1 l3.7 -3.4 0.3 -66.4 c0.2 -64.3 0.2 -66.4 -1.7 -69.5 -4.4 -7 -16.3 -6.6 -20.6 0.7 -2 3.4 -2 4.8 -2 67.5 0 70.2 -0.1 68.9 5.9 72.6 5 3 10 2.5 14.4 -1.5z m-116.9 -158.8 c1.1 -2.4 2.2 -5.1 2.5 -6 0.4 -1.5 1.8 -1.8 8 -1.8 8.5 0 8.6 -0.1 8.6 -10 0 -5.4 0.2 -5.7 5.1 -10.4 7.7 -7.3 10.3 -13.8 10.3 -25.6 0 -8.2 -0.3 -10.3 -2.6 -15.3 -3.5 -7.4 -12.1 -16 -19.5 -19.5 -5.2 -2.4 -7 -2.7 -16.3 -2.7 -9.4 0 -11 0.3 -15.8 2.7 -14.4 7.4 -22.2 19.5 -22.2 34.3 0 10.4 3.5 18.8 10.9 26 4 3.8 4.1 4 4.1 11 0 3.8 0.4 7.5 0.8 8.2 0.5 0.7 3.9 1.3 8.7 1.5 l7.9 0.3 0.7 3.2 c0.8 4.2 3.5 8.3 5.4 8.3 0.9 0 2.4 -1.9 3.4 -4.2z"/>
  <path d="M207.9 302 c-6.4 -5.2 -20.8 -13.8 -28.7 -17 -4.2 -1.7 -8.3 -3.9 -8.9 -4.8 -1 -1.2 -1.3 -15.5 -1.3 -63.4 l0 -61.8 2.1 0 c5.5 0 30.6 14.3 38.7 22 l3.2 3.1 0 62.5 c0 34.3 -0.3 62.4 -0.7 62.4 -0.5 -0.1 -2.4 -1.4 -4.4 -3z"/>
  <path d="M238 242.7 c0 -71.6 -1.3 -63.2 11.2 -72 7.7 -5.5 23.9 -14 29.1 -15.2 l2.7 -0.7 0 63.1 0 63.1 -4.2 1.7 c-8.9 3.5 -21.6 10.4 -28.8 15.5 -4.1 3 -8.1 5.7 -8.7 6.2 -1 0.6 -1.3 -12 -1.3 -61.7z"/>
  <path d="M221.6 85.9 c-5.7 -1.6 -10.6 -8.2 -10.6 -14.1 0 -7.9 6.6 -14.2 14.8 -14 7 0.1 14.2 6.9 14.2 13.4 0 9.1 -10.1 17.1 -18.4 14.7z"/>
 </g>
</svg>