<?xml version="1.0" encoding="utf-8"?>
<!DOCTYPE svg PUBLIC "-//W3C//DTD SVG 1.0//EN" "http://www.w3.org/TR/2001/REC-SVG-20010904/DTD/svg10.dtd">
<svg version="1.0" xmlns="http://www.w3.org/2000/svg" width="500px" height="500px" viewBox="0 0 500 500" preserveAspectRatio="xMidYMid meet">
 <g fill="#000000">
  <path d="M138.7 493.7 c-8.4 -2 -13.9 -11.4 -11.7 -19.7 1.2 -4.6 5.1 -9.5 9.1 -11.5 5.4 -2.8 15.4 -1.3 18.8 2.9 1.3 1.5 1.2 2 -0.7 3.8 -2 2 -2.2 2 -4.6 0.5 -6.8 -4.5 -15.6 -0.1 -15.6 7.9 0 8.3 6.6 12.4 14 8.5 3.8 -2 3.9 -2 6.2 -0.2 1.9 1.6 2.1 2.1 0.8 3.5 -3.2 3.9 -10.3 5.7 -16.3 4.3z"/>
  <path d="M329.8 494 c-8.2 -1.5 -12.8 -7.2 -12.8 -16.1 0 -6.5 2.4 -10.9 7.9 -14.6 4.7 -3.2 12.5 -3.2 17.2 0 4.1 2.7 4.7 4.8 1.8 6.5 -1.7 1.1 -2.4 1.1 -4.4 -0.2 -1.4 -0.9 -4.3 -1.6 -6.5 -1.6 -3.3 0 -4.8 0.6 -7.2 3 -2.7 2.7 -3 3.6 -2.5 7.1 1 7.5 8.7 12.1 14.2 8.5 3.1 -2 5.9 -2 7.5 0 1.1 1.3 1 1.8 -0.7 3.5 -2.7 2.7 -10 4.7 -14.5 3.9z"/>
  <path d="M175.5 492.4 c-7.1 -3.6 -10.5 -14.4 -7 -21.8 2.8 -5.8 7.6 -8.9 14.6 -9.4 5.1 -0.4 6.5 -0.1 9.9 2.2 7 4.6 10.1 14.7 6.5 21.6 -2.7 5.3 -8 8.4 -14.9 8.7 -4.1 0.2 -7.1 -0.2 -9.1 -1.3z m15.9 -8.3 c5.3 -5.4 3.2 -13.4 -4.3 -15.9 -6 -2 -13.1 3 -13.1 9.2 0.1 9.8 10.4 13.7 17.4 6.7z"/>
  <path d="M213.2 492.8 c-0.8 -0.8 -1.2 -5.6 -1.2 -14.8 0 -20.6 2.1 -21.8 13.8 -7.5 4 5 7.8 9 8.4 9 0.7 0 1.1 -2.5 0.9 -7.5 -0.2 -8.6 1.4 -12.3 4.6 -10.4 1.6 1 1.8 2.8 2.1 14 0.3 14.9 0 17 -2.9 17.9 -2.5 0.8 -5.8 -2.1 -13.2 -11.7 -2.8 -3.8 -5.5 -6.8 -5.9 -6.8 -0.4 0 -0.8 3.4 -0.8 7.6 0 10 -2.2 13.8 -5.8 10.2z"/>
  <path d="M254.2 492.8 c-0.8 -0.8 -1.2 -5.7 -1.2 -15.3 0 -14.5 0.5 -16.5 4.2 -16.5 1 0 4.9 3.9 9.3 9.5 4.2 5.2 8 9.5 8.5 9.5 0.6 0 1 -3.1 1 -6.9 0 -7.8 1.2 -12.1 3.4 -12.1 2.8 0 3.6 3.8 3.6 16.8 0 11.5 -0.2 13.1 -2 14.7 -1 0.9 -2.6 1.5 -3.4 1.2 -0.8 -0.3 -5 -4.7 -9.3 -9.8 l-7.8 -9.2 -0.5 8.7 c-0.4 6.2 -0.9 8.9 -2 9.6 -2 1.3 -2.4 1.2 -3.8 -0.2z"/>
  <path d="M290.6 492.4 c-1.3 -1.2 -1.6 -4.1 -1.6 -14.7 0 -7.3 0.4 -13.8 0.9 -14.6 1.5 -2.3 12.5 -2.7 15.7 -0.6 2.4 1.5 2.5 1.8 1 3.3 -0.8 0.9 -3.4 1.7 -5.8 1.8 -3.7 0.2 -4.3 0.5 -5 3 -1 3.7 -0.3 4.4 4.3 4.4 2.6 0 4.2 0.5 4.6 1.5 0.8 2.2 -0.1 2.8 -5 3.4 -3.6 0.5 -4.2 0.9 -4.3 3.1 -0.1 4.3 0.6 4.9 5.1 4.8 5 -0.1 6.5 0.6 6.5 3.1 0 1.3 -1 2.1 -3.1 2.5 -5.6 1.1 -11.7 0.7 -13.3 -1z"/>
  <path d="M366.2 492.8 c-0.8 -0.8 -1.2 -5.2 -1.2 -13 0 -11.6 0 -11.8 -2.2 -11.8 -6.4 -0.1 -9.2 -3.6 -4.9 -6 2.5 -1.3 18.1 -1.3 21.5 0 5 1.9 2 6 -4.3 6 l-3.1 0 0 11.8 c0 11.5 -0.7 14.2 -3.5 14.2 -0.6 0 -1.6 -0.5 -2.3 -1.2z"/>
  <path d="M238.5 440.5 c-0.5 -0.2 -2.7 -0.6 -4.7 -1 -2 -0.3 -5.9 -2.1 -8.7 -4 -5.9 -4.1 -6.1 -4.1 -6.1 -1.6 0 1.1 -1.2 2.9 -2.7 4.1 -2.2 1.7 -3.7 2.1 -7.2 1.7 -2.4 -0.3 -4.7 -1.1 -5.2 -1.8 -0.7 -1.2 -1.7 -64.1 -1.1 -72.4 0.3 -3.8 1.5 -4.5 8.4 -4.5 4.7 0 5.9 0.4 6.8 1.9 0.5 1.1 1 7.8 1 15 0 7.8 0.4 13.1 1 13.1 0.5 0 3 -1.3 5.6 -3 9 -5.6 18.9 -6.1 29.1 -1.4 14.2 6.7 20.3 23.3 13.6 37.1 -3 6.1 -8.6 11.2 -15.4 14.2 -4.3 1.8 -12.4 3.3 -14.4 2.6z m11.5 -16.4 c6.4 -4.6 8.9 -13.1 5.4 -19 -4.2 -7.2 -15.4 -10.2 -23.1 -6.3 -6.4 3.3 -9.3 7.4 -9.3 13.3 0 4.2 0.5 5.5 3.3 8.5 1.7 1.9 5 4.1 7.2 4.9 4.9 1.9 13 1.2 16.5 -1.4z"/>
  <path d="M102.3 438.5 l-2.3 -1.6 0 -34.8 c0 -33.1 0.1 -34.9 1.9 -36.5 1.8 -1.6 3.9 -1.8 20.3 -1.4 17.5 0.3 18.5 0.4 23.8 3 6.3 3.1 9.5 6.8 11.1 13 1.6 5.9 0.5 11.1 -3.4 15.5 -2.5 2.8 -2.9 3.7 -1.7 4.1 0.8 0.3 3.3 2.4 5.6 4.7 8.7 9 8.1 20.5 -1.6 28.7 -5.9 5.1 -10.1 6 -32 6.5 -17 0.4 -19.8 0.3 -21.7 -1.2z m43.1 -15.4 c3.9 -3.6 3.1 -11 -1.3 -13.8 -1.1 -0.7 -7.4 -1.3 -14.7 -1.4 l-12.9 -0.2 -0.3 9.2 -0.3 9.3 13.5 -0.4 c12.6 -0.3 13.6 -0.4 16 -2.7z m-10.6 -29 c5.6 -1.1 7.6 -3.1 7.6 -7.7 0 -2.8 -0.7 -4.2 -2.8 -6 -2.5 -2.2 -3.6 -2.4 -13.2 -2.4 l-10.4 0 0 8.5 0 8.5 7.3 0 c3.9 -0.1 9.2 -0.5 11.5 -0.9z"/>
  <path d="M176.8 439 c-1.6 -1 -1.8 -3.3 -1.8 -25.4 0 -22.3 0.2 -24.4 1.8 -25.9 2.7 -2.4 8.5 -2.2 10.8 0.4 1.7 1.9 1.9 4.1 2.2 24.8 0.2 17.8 0 23 -1.1 24.5 -1.6 2.1 -9.3 3.2 -11.9 1.6z"/>
  <path d="M285.8 439.4 c-0.9 -0.3 -1.9 -1.2 -2.2 -2 -0.3 -0.8 -0.6 -17.7 -0.6 -37.6 -0.1 -40.7 -0.5 -38.8 7.3 -38.8 8.2 0 7.7 -2.6 7.7 38.8 0 20.2 -0.4 37.3 -0.9 38.1 -0.9 1.4 -8.3 2.4 -11.3 1.5z"/>
  <path d="M311.1 438.1 c-2 -2 -2.1 -3 -2.1 -24.2 0 -26 0.5 -27.8 7.6 -27.9 1.8 0 4.2 0.9 5.5 1.9 2.4 1.9 2.4 1.9 2.4 25.5 0 16.5 -0.3 23.8 -1.2 24.7 -0.6 0.6 -3.1 1.4 -5.6 1.6 -3.6 0.4 -4.9 0.1 -6.6 -1.6z"/>
  <path d="M350.2 437.4 c-17.4 -8.6 -21.5 -30.3 -8.4 -44.2 6.3 -6.7 11.8 -9.2 20.7 -9.2 8.3 0 14.1 2.3 19.8 7.8 14.9 14.3 11 37.1 -7.8 45.8 -7.2 3.4 -17.2 3.3 -24.3 -0.2z m17 -11.4 c2.1 -0.6 5.1 -2.7 7.2 -5 2.9 -3.2 3.6 -4.8 3.6 -8.1 0 -4.9 -1.9 -8.8 -6 -12.2 -4.2 -3.6 -9 -4.3 -14.6 -2.2 -6.4 2.4 -9.4 6.8 -9.4 13.6 0 4.6 0.5 6 3.1 9.2 4.1 5 9.3 6.5 16.1 4.7z"/>
  <path d="M178.2 380.3 c-0.7 -0.3 -1.9 -1.7 -2.7 -3.3 -3.1 -6.1 2.6 -12.4 9 -10 3.7 1.4 4.5 2.6 4.5 6.8 0 5.4 -5.4 8.7 -10.8 6.5z"/>
  <path d="M311.8 379.3 c-2.6 -3 -3 -6 -1.3 -9.3 1.5 -2.9 3.2 -3.6 7.9 -3.1 5.8 0.5 7.7 8.3 3 12 -3.3 2.6 -7.6 2.7 -9.6 0.4z"/>
  <path d="M229 326.3 c-37 -6 -64.7 -19.9 -89.5 -44.7 -12.3 -12.4 -17.5 -18.8 -25.7 -32.4 -15.8 -25.7 -24.7 -64.1 -21.8 -93.4 4.1 -41.4 18.6 -72.6 46.9 -100.8 19.8 -19.7 42.8 -33.1 69.6 -40.5 16.7 -4.5 29.1 -5.9 47.1 -5.2 21.8 0.8 38.9 5.2 60 15.2 87.3 41.3 118.6 149.4 66.6 230 -8.5 13.2 -23.4 29.5 -36.2 39.6 -12.9 10.3 -34.1 21 -52.4 26.6 -8.9 2.7 -27.9 6.3 -33.2 6.3 l-3.4 0 0 -9.3 c0 -16.8 4 -26.6 16 -38.7 12.8 -12.9 21.6 -17.8 61.9 -34 15.1 -6 28.6 -12 29.9 -13.3 5.3 -4.9 5.2 -4.2 5.2 -53.1 l0 -45.4 -2.6 -3.1 c-3.4 -4.1 -8.9 -4.3 -12.5 -0.5 l-2.4 2.6 -0.3 43.2 -0.3 43.3 -19.7 7.7 c-24.4 9.6 -29.1 11.6 -41.7 17.8 -16 8 -29.7 19.3 -38.2 31.6 -2 2.8 -3.9 5.2 -4.3 5.2 -0.4 0 -2.3 -2.4 -4.3 -5.2 -6.7 -9.7 -18.5 -20.7 -29.5 -27.2 -8.1 -4.9 -39.8 -18.4 -64.4 -27.6 l-5.8 -2.1 0 -42.9 0 -42.8 -2.6 -3.1 c-2 -2.4 -3.4 -3.1 -6.3 -3.1 -4.1 0 -7.7 2.6 -8.6 6.3 -0.3 1.2 -0.4 22.5 -0.3 47.4 0.3 44.1 0.3 45.2 2.4 48 3 4.1 5.7 5.4 32.6 16.2 30 12.2 39.6 16.6 48.6 22.5 10.2 6.7 20.6 18.1 25.1 27.5 3.4 7.2 3.6 8.2 4 19.9 l0.3 12.2 -3.8 -0.1 c-2.2 -0.1 -5 -0.4 -6.4 -0.6z m27.5 -77.4 c8.5 -8.6 23.6 -18.9 34.6 -23.5 10.9 -4.6 13.6 -6.7 14.9 -11.4 0.7 -2.6 1 -25.2 0.8 -66.5 l-0.3 -62.7 -2.8 -2.4 c-6.2 -5.3 -14.7 -0.8 -14.7 7.8 l0 4.4 -5.7 1.9 c-9.9 3.2 -22 9.6 -28.8 15.2 -3.5 2.9 -6.7 5.3 -7.1 5.3 -0.3 0 -3 -2.2 -5.9 -4.9 -5.9 -5.3 -19.7 -12.9 -28.7 -15.7 l-5.8 -1.8 0 -4.4 c0 -8.6 -8.5 -13.1 -14.7 -7.8 l-2.8 2.4 -0.3 62.2 c-0.2 42.5 0.1 63.4 0.8 66.2 1.5 5.4 4.3 7.7 13.9 11.7 12.3 5.1 23.3 12.4 33.4 22.2 5.1 4.8 9.9 8.8 10.7 8.9 0.9 0 4.7 -3.2 8.5 -7.1z m-84.3 -40.8 l3.3 -2.9 0 -48 c-0.1 -46.4 -0.1 -48.1 -2 -50.2 -1.1 -1.2 -3.1 -2.6 -4.4 -3.1 -3.1 -1.2 -8.8 0.6 -10.1 3.2 -0.7 1.1 -1.1 19.6 -1.2 49.2 -0.2 43.9 -0.1 47.6 1.5 50.1 3.4 5.2 8.3 5.8 12.9 1.7z m161.3 1.3 c1.8 -0.8 3.7 -2.3 4.2 -3.2 0.9 -2 1.7 -88.8 0.8 -95 -0.5 -3 -1.4 -4.7 -3.2 -5.9 -3.5 -2.3 -9 -2 -11.7 0.6 -2.1 2.1 -2.1 2.7 -2.4 49.9 -0.2 51.1 -0.2 51.4 4.8 53.9 3.2 1.6 3.5 1.6 7.5 -0.3z m-83 -116.4 c0.8 -1.6 1.5 -3.6 1.5 -4.5 0 -1.2 1.2 -1.5 6 -1.5 l6 0 0 -5.3 c0 -5 0.3 -5.7 4.5 -10 7.6 -8 9.5 -20 4.6 -29.4 -9.2 -17.6 -31.1 -21.2 -44.8 -7.5 -10.2 10.2 -10.1 27.3 0.2 37.9 2.9 3 3.6 4.4 3.5 7.3 -0.4 7.2 -0.5 7 6 7 4.8 0 6 0.3 6 1.5 0 2.2 2.8 7.5 4 7.5 0.5 0 1.6 -1.3 2.5 -3z"/>
  <path d="M231 218.9 c-4.1 -2.9 -11.2 -6.9 -15.7 -9 l-8.2 -3.8 -0.1 -46.1 0 -46.1 2.2 0.6 c5 1.4 18.1 8.6 23.8 13 l6 4.6 0 46 c0 25.2 -0.1 45.9 -0.2 45.9 -0.2 0 -3.7 -2.3 -7.8 -5.1z"/>
  <path d="M257 178.1 l0 -46 5.3 -4 c6.2 -4.7 16.6 -10.4 22.5 -12.5 l4.2 -1.5 0 46.4 c0 31.2 -0.3 46.5 -1 46.5 -2.1 0 -15.8 7 -22.1 11.3 -3.5 2.4 -7 4.7 -7.6 5.1 -1 0.6 -1.3 -8.8 -1.3 -45.3z"/>
  <path d="M242.1 63.4 c-8.4 -5.9 -4.3 -19.4 6 -19.4 7.3 0 12.6 7.5 10 14.3 -2.2 5.6 -11.1 8.5 -16 5.1z"/>
 </g>
</svg>